G04*
G04 #@! TF.GenerationSoftware,Altium Limited,Altium Designer,22.5.1 (42)*
G04*
G04 Layer_Physical_Order=2*
G04 Layer_Color=16711680*
%FSLAX25Y25*%
%MOIN*%
G70*
G04*
G04 #@! TF.SameCoordinates,2259C19E-8C9C-4015-8B10-9D1C86A6F0C8*
G04*
G04*
G04 #@! TF.FilePolarity,Positive*
G04*
G01*
G75*
%ADD15C,0.01000*%
%ADD49C,0.06000*%
%ADD50R,0.06000X0.06000*%
%ADD51C,0.13400*%
%ADD52R,0.06299X0.06299*%
%ADD53C,0.06299*%
%ADD54R,0.06299X0.06299*%
%ADD55R,0.05906X0.05906*%
%ADD56C,0.05906*%
%ADD57C,0.04693*%
%ADD58C,0.05000*%
D15*
X332000Y319000D02*
X342000Y309000D01*
X326935Y319000D02*
X332000D01*
X318935Y327000D02*
X326935Y319000D01*
X293500Y327000D02*
X318935D01*
X247000Y241500D02*
Y345000D01*
X306500Y404500D01*
X284000Y351000D02*
X317514D01*
X318514Y350000D01*
X352299D01*
X397799Y304500D01*
X264500Y259500D02*
X276000Y271000D01*
X291500D01*
X306500Y404500D02*
X327799D01*
X439500Y329614D02*
Y345000D01*
Y329614D02*
X443650Y325464D01*
X439000Y288806D02*
X443650Y293455D01*
X439000Y279000D02*
Y288806D01*
X443650Y293455D02*
Y325464D01*
X434850Y360035D02*
X439500Y364685D01*
X439000Y298685D02*
Y327285D01*
X434850Y331435D02*
X439000Y327285D01*
X434850Y331435D02*
Y360035D01*
X438500Y227805D02*
X443150Y232455D01*
Y274850D01*
X439000Y279000D02*
X443150Y274850D01*
X438500Y218000D02*
Y227805D01*
X434350Y267935D02*
Y294035D01*
X439000Y298685D01*
X434350Y267935D02*
X438500Y263785D01*
Y237685D02*
Y263785D01*
X368435Y201500D02*
X395935Y229000D01*
X429815D01*
X438500Y237685D01*
X295185Y201500D02*
X368435D01*
X407663Y218000D02*
X438500D01*
X386514Y196850D02*
X407663Y218000D01*
X289955Y196850D02*
X386514D01*
X285306Y201500D02*
X289955Y196850D01*
X275500Y201500D02*
X285306D01*
X302500Y373000D02*
X306500Y369000D01*
X393299D02*
X397799Y364500D01*
X306500Y369000D02*
X393299D01*
X313000Y302000D02*
X323946D01*
X313000Y287000D02*
X314082D01*
X326582Y274500D01*
X291500Y305500D02*
X300500Y314500D01*
X327799D01*
X326582Y274500D02*
X327799D01*
X326446Y304500D02*
X327799D01*
X323946Y302000D02*
X326446Y304500D01*
D49*
X327799Y404500D02*
D03*
Y394500D02*
D03*
Y374500D02*
D03*
Y364500D02*
D03*
Y354500D02*
D03*
Y344500D02*
D03*
Y324500D02*
D03*
Y314500D02*
D03*
Y304500D02*
D03*
Y294500D02*
D03*
Y274500D02*
D03*
Y264500D02*
D03*
Y254500D02*
D03*
Y244500D02*
D03*
Y224500D02*
D03*
Y214500D02*
D03*
X397799Y224500D02*
D03*
Y244500D02*
D03*
Y254500D02*
D03*
Y264500D02*
D03*
Y274500D02*
D03*
Y294500D02*
D03*
Y304500D02*
D03*
Y314500D02*
D03*
Y324500D02*
D03*
Y344500D02*
D03*
Y354500D02*
D03*
Y364500D02*
D03*
Y374500D02*
D03*
Y394500D02*
D03*
Y404500D02*
D03*
Y214500D02*
D03*
X352799Y215500D02*
D03*
X372799D02*
D03*
D50*
X327799Y384500D02*
D03*
Y334500D02*
D03*
Y284500D02*
D03*
Y234500D02*
D03*
X397799D02*
D03*
Y284500D02*
D03*
Y334500D02*
D03*
Y384500D02*
D03*
X362799Y215500D02*
D03*
D51*
X279000Y432500D02*
D03*
X452500Y167500D02*
D03*
X453500Y433000D02*
D03*
X278000Y167500D02*
D03*
D52*
X513000Y393500D02*
D03*
X439500Y345000D02*
D03*
X438500Y218000D02*
D03*
X439000Y279000D02*
D03*
D53*
X513000Y413185D02*
D03*
X439500Y364685D02*
D03*
X438500Y237685D02*
D03*
X439000Y298685D02*
D03*
X295185Y201500D02*
D03*
D54*
X275500D02*
D03*
D55*
X387000Y192000D02*
D03*
D56*
X377000D02*
D03*
X367000D02*
D03*
X357000D02*
D03*
X347000D02*
D03*
X337000D02*
D03*
D57*
X230166Y275000D02*
D03*
Y294213D02*
D03*
D58*
X342000Y309000D02*
D03*
X293500Y327000D02*
D03*
X247000Y241500D02*
D03*
X284000Y351000D02*
D03*
X291500Y271000D02*
D03*
X264500Y259500D02*
D03*
X302500Y373000D02*
D03*
X313000Y302000D02*
D03*
Y287000D02*
D03*
X291500Y305500D02*
D03*
M02*
