G04*
G04 #@! TF.GenerationSoftware,Altium Limited,Altium Designer,22.5.1 (42)*
G04*
G04 Layer_Color=255*
%FSLAX25Y25*%
%MOIN*%
G70*
G04*
G04 #@! TF.SameCoordinates,2259C19E-8C9C-4015-8B10-9D1C86A6F0C8*
G04*
G04*
G04 #@! TF.FilePolarity,Positive*
G04*
G01*
G75*
%ADD49C,0.06000*%
%ADD50R,0.06000X0.06000*%
%ADD51C,0.13400*%
%ADD52R,0.06299X0.06299*%
%ADD53C,0.06299*%
%ADD54R,0.06299X0.06299*%
%ADD55R,0.05906X0.05906*%
%ADD56C,0.05906*%
%ADD57C,0.04693*%
D49*
X327799Y404500D02*
D03*
Y394500D02*
D03*
Y374500D02*
D03*
Y364500D02*
D03*
Y354500D02*
D03*
Y344500D02*
D03*
Y324500D02*
D03*
Y314500D02*
D03*
Y304500D02*
D03*
Y294500D02*
D03*
Y274500D02*
D03*
Y264500D02*
D03*
Y254500D02*
D03*
Y244500D02*
D03*
Y224500D02*
D03*
Y214500D02*
D03*
X397799Y224500D02*
D03*
Y244500D02*
D03*
Y254500D02*
D03*
Y264500D02*
D03*
Y274500D02*
D03*
Y294500D02*
D03*
Y304500D02*
D03*
Y314500D02*
D03*
Y324500D02*
D03*
Y344500D02*
D03*
Y354500D02*
D03*
Y364500D02*
D03*
Y374500D02*
D03*
Y394500D02*
D03*
Y404500D02*
D03*
Y214500D02*
D03*
X352799Y215500D02*
D03*
X372799D02*
D03*
D50*
X327799Y384500D02*
D03*
Y334500D02*
D03*
Y284500D02*
D03*
Y234500D02*
D03*
X397799D02*
D03*
Y284500D02*
D03*
Y334500D02*
D03*
Y384500D02*
D03*
X362799Y215500D02*
D03*
D51*
X279000Y432500D02*
D03*
X452500Y167500D02*
D03*
X453500Y433000D02*
D03*
X278000Y167500D02*
D03*
D52*
X513000Y393500D02*
D03*
X439500Y345000D02*
D03*
X438500Y218000D02*
D03*
X439000Y279000D02*
D03*
D53*
X513000Y413185D02*
D03*
X439500Y364685D02*
D03*
X438500Y237685D02*
D03*
X439000Y298685D02*
D03*
X295185Y201500D02*
D03*
D54*
X275500D02*
D03*
D55*
X387000Y192000D02*
D03*
D56*
X377000D02*
D03*
X367000D02*
D03*
X357000D02*
D03*
X347000D02*
D03*
X337000D02*
D03*
D57*
X230166Y275000D02*
D03*
Y294213D02*
D03*
M02*
