M48
;Layer_Color=9474304
;FILE_FORMAT=2:4
INCH,TZ
;TYPE=PLATED
T1F00S00C0.0256
T2F00S00C0.0280
T3F00S00C0.0354
T4F00S00C0.0400
T5F00S00C0.0433
T6F00S00C0.1340
%
T01
X23017Y27500
Y29421
T02
X31300Y28700
Y30200
X34200Y30900
X29150Y30550
Y27100
X26450Y25950
X24700Y24150
X29350Y32700
X28400Y35100
X30250Y37300
T03
X33700Y19200
X34700
X35700
X36700
X37700
X38700
T04
X32780Y21450
Y22450
Y23450
Y24450
Y25450
Y26450
Y27450
Y28450
Y29450
Y30450
X39780
Y29450
Y28450
Y27450
Y26450
Y25450
Y24450
Y23450
Y22450
Y21450
X37280Y21550
X36280
X35280
X32780Y31450
Y32450
Y33450
Y34450
Y35450
Y36450
Y37450
Y38450
Y39450
Y40450
X39780
Y39450
Y38450
Y37450
Y36450
Y35450
Y34450
Y33450
Y32450
Y31450
T05
X43850Y21800
Y23768
X43900Y27900
Y29869
X29518Y20150
X27550
X43950Y34500
Y36469
X51300Y39350
Y41318
T06
X45250Y16750
X27800
X27900Y43250
X45350Y43300
M30
