G04*
G04 #@! TF.GenerationSoftware,Altium Limited,Altium Designer,22.5.1 (42)*
G04*
G04 Layer_Color=8388736*
%FSLAX25Y25*%
%MOIN*%
G70*
G04*
G04 #@! TF.SameCoordinates,2259C19E-8C9C-4015-8B10-9D1C86A6F0C8*
G04*
G04*
G04 #@! TF.FilePolarity,Negative*
G04*
G01*
G75*
G04:AMPARAMS|DCode=21|XSize=85.59mil|YSize=22.32mil|CornerRadius=11.16mil|HoleSize=0mil|Usage=FLASHONLY|Rotation=0.000|XOffset=0mil|YOffset=0mil|HoleType=Round|Shape=RoundedRectangle|*
%AMROUNDEDRECTD21*
21,1,0.08559,0.00000,0,0,0.0*
21,1,0.06328,0.02232,0,0,0.0*
1,1,0.02232,0.03164,0.00000*
1,1,0.02232,-0.03164,0.00000*
1,1,0.02232,-0.03164,0.00000*
1,1,0.02232,0.03164,0.00000*
%
%ADD21ROUNDEDRECTD21*%
%ADD22R,0.08559X0.02232*%
%ADD28O,0.04934X0.06509*%
%ADD29O,0.05131X0.07887*%
G04:AMPARAMS|DCode=30|XSize=67.06mil|YSize=67.06mil|CornerRadius=15.81mil|HoleSize=0mil|Usage=FLASHONLY|Rotation=0.000|XOffset=0mil|YOffset=0mil|HoleType=Round|Shape=RoundedRectangle|*
%AMROUNDEDRECTD30*
21,1,0.06706,0.03543,0,0,0.0*
21,1,0.03543,0.06706,0,0,0.0*
1,1,0.03162,0.01772,-0.01772*
1,1,0.03162,-0.01772,-0.01772*
1,1,0.03162,-0.01772,0.01772*
1,1,0.03162,0.01772,0.01772*
%
%ADD30ROUNDEDRECTD30*%
%ADD31O,0.08674X0.03162*%
%ADD32R,0.04737X0.05918*%
%ADD33R,0.05918X0.04737*%
%ADD34R,0.09855X0.06706*%
%ADD35R,0.06706X0.09855*%
G04:AMPARAMS|DCode=36|XSize=135.95mil|YSize=88.71mil|CornerRadius=6.02mil|HoleSize=0mil|Usage=FLASHONLY|Rotation=270.000|XOffset=0mil|YOffset=0mil|HoleType=Round|Shape=RoundedRectangle|*
%AMROUNDEDRECTD36*
21,1,0.13595,0.07667,0,0,270.0*
21,1,0.12392,0.08871,0,0,270.0*
1,1,0.01204,-0.03834,-0.06196*
1,1,0.01204,-0.03834,0.06196*
1,1,0.01204,0.03834,0.06196*
1,1,0.01204,0.03834,-0.06196*
%
%ADD36ROUNDEDRECTD36*%
G04:AMPARAMS|DCode=37|XSize=47.37mil|YSize=88.71mil|CornerRadius=5.97mil|HoleSize=0mil|Usage=FLASHONLY|Rotation=270.000|XOffset=0mil|YOffset=0mil|HoleType=Round|Shape=RoundedRectangle|*
%AMROUNDEDRECTD37*
21,1,0.04737,0.07677,0,0,270.0*
21,1,0.03543,0.08871,0,0,270.0*
1,1,0.01194,-0.03839,-0.01772*
1,1,0.01194,-0.03839,0.01772*
1,1,0.01194,0.03839,0.01772*
1,1,0.01194,0.03839,-0.01772*
%
%ADD37ROUNDEDRECTD37*%
%ADD38C,0.06800*%
%ADD39R,0.06800X0.06800*%
%ADD40C,0.14200*%
%ADD41R,0.07099X0.07099*%
%ADD42C,0.07099*%
%ADD43R,0.07099X0.07099*%
%ADD44R,0.06706X0.06706*%
%ADD45C,0.06706*%
%ADD46C,0.05493*%
%ADD47C,0.05800*%
D21*
X296315Y264000D02*
D03*
Y259000D02*
D03*
Y254000D02*
D03*
Y249000D02*
D03*
X277685D02*
D03*
Y254000D02*
D03*
Y259000D02*
D03*
D22*
Y264000D02*
D03*
D28*
X372280Y392305D02*
D03*
X353186D02*
D03*
D29*
X373461Y404235D02*
D03*
X352005D02*
D03*
D30*
X353162Y358447D02*
D03*
Y368290D02*
D03*
X352890Y378644D02*
D03*
X362733Y392424D02*
D03*
X366670Y405416D02*
D03*
X358796D02*
D03*
D31*
X304000Y278000D02*
D03*
Y283000D02*
D03*
Y288000D02*
D03*
Y293000D02*
D03*
Y298000D02*
D03*
Y303000D02*
D03*
Y308000D02*
D03*
Y313000D02*
D03*
Y318000D02*
D03*
X268567Y278000D02*
D03*
Y283000D02*
D03*
Y288000D02*
D03*
Y293000D02*
D03*
Y298000D02*
D03*
Y303000D02*
D03*
Y308000D02*
D03*
Y313000D02*
D03*
Y318000D02*
D03*
D32*
X304150Y339000D02*
D03*
X297850D02*
D03*
X452299Y261000D02*
D03*
X446000D02*
D03*
X434299D02*
D03*
X428000D02*
D03*
X281350Y238500D02*
D03*
X287650D02*
D03*
X435150Y199000D02*
D03*
X428850D02*
D03*
X451150D02*
D03*
X444850D02*
D03*
X435000Y324000D02*
D03*
X428701D02*
D03*
X453150D02*
D03*
X446850D02*
D03*
X291201Y407500D02*
D03*
X297500D02*
D03*
X273350D02*
D03*
X279650D02*
D03*
D33*
X255000Y261799D02*
D03*
Y255500D02*
D03*
X247000Y204350D02*
D03*
Y210650D02*
D03*
Y191201D02*
D03*
Y197500D02*
D03*
X250500Y279000D02*
D03*
Y272701D02*
D03*
Y288000D02*
D03*
Y294299D02*
D03*
X287500Y368701D02*
D03*
Y375000D02*
D03*
X414500Y394150D02*
D03*
Y387850D02*
D03*
X489500Y403150D02*
D03*
Y396850D02*
D03*
X472000Y382201D02*
D03*
Y388500D02*
D03*
Y397000D02*
D03*
Y403299D02*
D03*
D34*
X282689Y337500D02*
D03*
X256311D02*
D03*
D35*
X272000Y385689D02*
D03*
Y359311D02*
D03*
D36*
X431000Y394000D02*
D03*
D37*
X456000Y403055D02*
D03*
Y394000D02*
D03*
Y384945D02*
D03*
D38*
X327799Y404500D02*
D03*
Y394500D02*
D03*
Y374500D02*
D03*
Y364500D02*
D03*
Y354500D02*
D03*
Y344500D02*
D03*
Y324500D02*
D03*
Y314500D02*
D03*
Y304500D02*
D03*
Y294500D02*
D03*
Y274500D02*
D03*
Y264500D02*
D03*
Y254500D02*
D03*
Y244500D02*
D03*
Y224500D02*
D03*
Y214500D02*
D03*
X397799Y224500D02*
D03*
Y244500D02*
D03*
Y254500D02*
D03*
Y264500D02*
D03*
Y274500D02*
D03*
Y294500D02*
D03*
Y304500D02*
D03*
Y314500D02*
D03*
Y324500D02*
D03*
Y344500D02*
D03*
Y354500D02*
D03*
Y364500D02*
D03*
Y374500D02*
D03*
Y394500D02*
D03*
Y404500D02*
D03*
Y214500D02*
D03*
X352799Y215500D02*
D03*
X372799D02*
D03*
D39*
X327799Y384500D02*
D03*
Y334500D02*
D03*
Y284500D02*
D03*
Y234500D02*
D03*
X397799D02*
D03*
Y284500D02*
D03*
Y334500D02*
D03*
Y384500D02*
D03*
X362799Y215500D02*
D03*
D40*
X279000Y432500D02*
D03*
X452500Y167500D02*
D03*
X453500Y433000D02*
D03*
X278000Y167500D02*
D03*
D41*
X513000Y393500D02*
D03*
X439500Y345000D02*
D03*
X438500Y218000D02*
D03*
X439000Y279000D02*
D03*
D42*
X513000Y413185D02*
D03*
X439500Y364685D02*
D03*
X438500Y237685D02*
D03*
X439000Y298685D02*
D03*
X295185Y201500D02*
D03*
D43*
X275500D02*
D03*
D44*
X387000Y192000D02*
D03*
D45*
X377000D02*
D03*
X367000D02*
D03*
X357000D02*
D03*
X347000D02*
D03*
X337000D02*
D03*
D46*
X230166Y275000D02*
D03*
Y294213D02*
D03*
D47*
X342000Y309000D02*
D03*
X293500Y327000D02*
D03*
X247000Y241500D02*
D03*
X284000Y351000D02*
D03*
X291500Y271000D02*
D03*
X264500Y259500D02*
D03*
X302500Y373000D02*
D03*
X313000Y302000D02*
D03*
Y287000D02*
D03*
X291500Y305500D02*
D03*
M02*
