G04*
G04 #@! TF.GenerationSoftware,Altium Limited,Altium Designer,22.5.1 (42)*
G04*
G04 Layer_Color=32768*
%FSLAX25Y25*%
%MOIN*%
G70*
G04*
G04 #@! TF.SameCoordinates,2259C19E-8C9C-4015-8B10-9D1C86A6F0C8*
G04*
G04*
G04 #@! TF.FilePolarity,Positive*
G04*
G01*
G75*
%ADD13C,0.00500*%
%ADD14C,0.00394*%
%ADD59C,0.00197*%
D13*
X250799Y344390D02*
X288201D01*
Y330610D02*
Y344390D01*
X250799Y330610D02*
X288201D01*
X250799D02*
Y344390D01*
X265110Y353799D02*
Y391201D01*
X278890D01*
Y353799D02*
Y391201D01*
X265110Y353799D02*
X278890D01*
D14*
X513000Y401374D02*
Y405311D01*
X511031Y403342D02*
X514968D01*
X286283Y296031D02*
Y299969D01*
X284315Y298000D02*
X288252D01*
X301000Y337032D02*
Y340968D01*
X299031Y339000D02*
X302969D01*
X295488Y336047D02*
X306512D01*
X295488Y341953D02*
X306512D01*
Y336047D02*
Y341953D01*
X295488Y336047D02*
Y341953D01*
X449150Y259032D02*
Y262968D01*
X447181Y261000D02*
X451118D01*
X443638Y258047D02*
X454661D01*
X443638Y263953D02*
X454661D01*
Y258047D02*
Y263953D01*
X443638Y258047D02*
Y263953D01*
X431150Y259032D02*
Y262968D01*
X429181Y261000D02*
X433118D01*
X425638Y258047D02*
X436661D01*
X425638Y263953D02*
X436661D01*
Y258047D02*
Y263953D01*
X425638Y258047D02*
Y263953D01*
X284500Y236531D02*
Y240469D01*
X282531Y238500D02*
X286469D01*
X278988Y241453D02*
X290012D01*
X278988Y235547D02*
X290012D01*
X278988D02*
Y241453D01*
X290012Y235547D02*
Y241453D01*
X439500Y352874D02*
Y356811D01*
X437532Y354842D02*
X441468D01*
X432000Y197031D02*
Y200969D01*
X430031Y199000D02*
X433968D01*
X426488Y196047D02*
X437512D01*
X426488Y201953D02*
X437512D01*
Y196047D02*
Y201953D01*
X426488Y196047D02*
Y201953D01*
X448000Y197031D02*
Y200969D01*
X446032Y199000D02*
X449968D01*
X442488Y196047D02*
X453512D01*
X442488Y201953D02*
X453512D01*
Y196047D02*
Y201953D01*
X442488Y196047D02*
Y201953D01*
X438500Y225874D02*
Y229811D01*
X436531Y227842D02*
X440469D01*
X253031Y258650D02*
X256968D01*
X255000Y256681D02*
Y260618D01*
X257953Y253138D02*
Y264161D01*
X252047Y253138D02*
Y264161D01*
X257953D01*
X252047Y253138D02*
X257953D01*
X431850Y322031D02*
Y325969D01*
X429882Y324000D02*
X433819D01*
X426339Y321047D02*
X437362D01*
X426339Y326953D02*
X437362D01*
Y321047D02*
Y326953D01*
X426339Y321047D02*
Y326953D01*
X450000Y322031D02*
Y325969D01*
X448032Y324000D02*
X451968D01*
X444488Y321047D02*
X455512D01*
X444488Y326953D02*
X455512D01*
Y321047D02*
Y326953D01*
X444488Y321047D02*
Y326953D01*
X439000Y286874D02*
Y290811D01*
X437032Y288843D02*
X440969D01*
X245031Y207500D02*
X248969D01*
X247000Y205532D02*
Y209469D01*
X244047Y201988D02*
Y213012D01*
X249953Y201988D02*
Y213012D01*
X244047Y201988D02*
X249953D01*
X244047Y213012D02*
X249953D01*
X245031Y194350D02*
X248969D01*
X247000Y192382D02*
Y196319D01*
X244047Y188839D02*
Y199862D01*
X249953Y188839D02*
Y199862D01*
X244047Y188839D02*
X249953D01*
X244047Y199862D02*
X249953D01*
X283374Y201500D02*
X287311D01*
X285343Y199531D02*
Y203468D01*
X216977Y254528D02*
Y310295D01*
X243355D01*
Y254528D02*
Y310295D01*
X216977Y254528D02*
X243355D01*
X248532Y275850D02*
X252468D01*
X250500Y273882D02*
Y277819D01*
X253453Y270339D02*
Y281362D01*
X247547Y270339D02*
Y281362D01*
X253453D01*
X247547Y270339D02*
X253453D01*
X248532Y291150D02*
X252468D01*
X250500Y289181D02*
Y293118D01*
X247547Y285638D02*
Y296661D01*
X253453Y285638D02*
Y296661D01*
X247547Y285638D02*
X253453D01*
X247547Y296661D02*
X253453D01*
X294350Y405532D02*
Y409469D01*
X292382Y407500D02*
X296319D01*
X288839Y410453D02*
X299862D01*
X288839Y404547D02*
X299862D01*
X288839D02*
Y410453D01*
X299862Y404547D02*
Y410453D01*
X276500Y405532D02*
Y409469D01*
X274532Y407500D02*
X278468D01*
X270988Y410453D02*
X282012D01*
X270988Y404547D02*
X282012D01*
X270988D02*
Y410453D01*
X282012Y404547D02*
Y410453D01*
X285531Y371850D02*
X289469D01*
X287500Y369882D02*
Y373819D01*
X284547Y366339D02*
Y377362D01*
X290453Y366339D02*
Y377362D01*
X284547Y366339D02*
X290453D01*
X284547Y377362D02*
X290453D01*
X412532Y391000D02*
X416468D01*
X414500Y389032D02*
Y392969D01*
X417453Y385488D02*
Y396512D01*
X411547Y385488D02*
Y396512D01*
X417453D01*
X411547Y385488D02*
X417453D01*
X443500Y392032D02*
Y395969D01*
X441532Y394000D02*
X445469D01*
X487532Y400000D02*
X491468D01*
X489500Y398031D02*
Y401968D01*
X492453Y394488D02*
Y405512D01*
X486547Y394488D02*
Y405512D01*
X492453D01*
X486547Y394488D02*
X492453D01*
X470031Y385350D02*
X473969D01*
X472000Y383382D02*
Y387319D01*
X469047Y379839D02*
Y390862D01*
X474953Y379839D02*
Y390862D01*
X469047Y379839D02*
X474953D01*
X469047Y390862D02*
X474953D01*
X470031Y400150D02*
X473969D01*
X472000Y398181D02*
Y402118D01*
X469047Y394638D02*
Y405661D01*
X474953Y394638D02*
Y405661D01*
X469047Y394638D02*
X474953D01*
X469047Y405661D02*
X474953D01*
D59*
X317366Y415996D02*
X408232D01*
Y204972D02*
Y415996D01*
X317366Y204972D02*
X408232D01*
X317366D02*
Y415996D01*
X529535Y380902D02*
Y423421D01*
X496465D02*
X529535D01*
X496465Y380902D02*
Y423421D01*
Y380902D02*
X529535D01*
X264236Y274378D02*
X308331D01*
X264236Y321622D02*
X308331D01*
Y274378D02*
Y321622D01*
X264236Y274378D02*
Y321622D01*
X456035Y332402D02*
Y374921D01*
X422965D02*
X456035D01*
X422965Y332402D02*
Y374921D01*
Y332402D02*
X456035D01*
X455035Y205402D02*
Y247921D01*
X421965D02*
X455035D01*
X421965Y205402D02*
Y247921D01*
Y205402D02*
X455035D01*
X455535Y266402D02*
Y308921D01*
X422465D02*
X455535D01*
X422465Y266402D02*
Y308921D01*
Y266402D02*
X455535D01*
X262902Y184965D02*
X305421D01*
Y218035D01*
X262902D02*
X305421D01*
X262902Y184965D02*
Y218035D01*
X424996Y409158D02*
X462004D01*
X424996Y378842D02*
X462004D01*
X424996D02*
Y409158D01*
X462004Y378842D02*
Y409158D01*
M02*
