G04*
G04 #@! TF.GenerationSoftware,Altium Limited,Altium Designer,22.5.1 (42)*
G04*
G04 Layer_Color=16711935*
%FSLAX25Y25*%
%MOIN*%
G70*
G04*
G04 #@! TF.SameCoordinates,2259C19E-8C9C-4015-8B10-9D1C86A6F0C8*
G04*
G04*
G04 #@! TF.FilePolarity,Negative*
G04*
G01*
G75*
%ADD38C,0.06800*%
%ADD39R,0.06800X0.06800*%
%ADD40C,0.14200*%
%ADD41R,0.07099X0.07099*%
%ADD42C,0.07099*%
%ADD43R,0.07099X0.07099*%
%ADD44R,0.06706X0.06706*%
%ADD45C,0.06706*%
%ADD46C,0.05493*%
%ADD47C,0.05800*%
D38*
X327799Y404500D02*
D03*
Y394500D02*
D03*
Y374500D02*
D03*
Y364500D02*
D03*
Y354500D02*
D03*
Y344500D02*
D03*
Y324500D02*
D03*
Y314500D02*
D03*
Y304500D02*
D03*
Y294500D02*
D03*
Y274500D02*
D03*
Y264500D02*
D03*
Y254500D02*
D03*
Y244500D02*
D03*
Y224500D02*
D03*
Y214500D02*
D03*
X397799Y224500D02*
D03*
Y244500D02*
D03*
Y254500D02*
D03*
Y264500D02*
D03*
Y274500D02*
D03*
Y294500D02*
D03*
Y304500D02*
D03*
Y314500D02*
D03*
Y324500D02*
D03*
Y344500D02*
D03*
Y354500D02*
D03*
Y364500D02*
D03*
Y374500D02*
D03*
Y394500D02*
D03*
Y404500D02*
D03*
Y214500D02*
D03*
X352799Y215500D02*
D03*
X372799D02*
D03*
D39*
X327799Y384500D02*
D03*
Y334500D02*
D03*
Y284500D02*
D03*
Y234500D02*
D03*
X397799D02*
D03*
Y284500D02*
D03*
Y334500D02*
D03*
Y384500D02*
D03*
X362799Y215500D02*
D03*
D40*
X279000Y432500D02*
D03*
X452500Y167500D02*
D03*
X453500Y433000D02*
D03*
X278000Y167500D02*
D03*
D41*
X513000Y393500D02*
D03*
X439500Y345000D02*
D03*
X438500Y218000D02*
D03*
X439000Y279000D02*
D03*
D42*
X513000Y413185D02*
D03*
X439500Y364685D02*
D03*
X438500Y237685D02*
D03*
X439000Y298685D02*
D03*
X295185Y201500D02*
D03*
D43*
X275500D02*
D03*
D44*
X387000Y192000D02*
D03*
D45*
X377000D02*
D03*
X367000D02*
D03*
X357000D02*
D03*
X347000D02*
D03*
X337000D02*
D03*
D46*
X230166Y275000D02*
D03*
Y294213D02*
D03*
D47*
X342000Y309000D02*
D03*
X293500Y327000D02*
D03*
X247000Y241500D02*
D03*
X284000Y351000D02*
D03*
X291500Y271000D02*
D03*
X264500Y259500D02*
D03*
X302500Y373000D02*
D03*
X313000Y302000D02*
D03*
Y287000D02*
D03*
X291500Y305500D02*
D03*
M02*
