G04*
G04 #@! TF.GenerationSoftware,Altium Limited,Altium Designer,22.5.1 (42)*
G04*
G04 Layer_Color=16711935*
%FSLAX25Y25*%
%MOIN*%
G70*
G04*
G04 #@! TF.SameCoordinates,2259C19E-8C9C-4015-8B10-9D1C86A6F0C8*
G04*
G04*
G04 #@! TF.FilePolarity,Positive*
G04*
G01*
G75*
%ADD15C,0.01000*%
D15*
X265000Y442500D02*
X295500D01*
X215500Y208000D02*
Y329500D01*
X292500Y157000D02*
Y168500D01*
X266500Y157000D02*
X292500D01*
Y168500D02*
X309000Y185000D01*
X427500D01*
X441500Y171000D01*
Y157000D02*
Y171000D01*
Y157000D02*
X466500D01*
X432000Y442500D02*
X474500D01*
X529000Y431000D02*
X532500Y427500D01*
X479000Y431000D02*
X529000D01*
X474500Y435500D02*
X479000Y431000D01*
X474500Y435500D02*
Y442500D01*
X432000Y436500D02*
Y442500D01*
X424000Y428500D02*
X432000Y436500D01*
X303000Y428500D02*
X424000D01*
X295500Y436000D02*
X303000Y428500D01*
X295500Y436000D02*
Y437000D01*
Y442500D01*
X260000Y437500D02*
X265000Y442500D01*
X260000Y376000D02*
Y437500D01*
X215500Y331500D02*
X260000Y376000D01*
X215500Y329500D02*
Y331500D01*
Y208000D02*
X266500Y157000D01*
X532500Y371000D02*
Y427500D01*
X490500Y371000D02*
X532500D01*
X466500Y347000D02*
X490500Y371000D01*
X466500Y157000D02*
Y347000D01*
M02*
